<?xml version="1.0" encoding="UTF-8" standalone="no"?>
<!DOCTYPE svg PUBLIC "-//W3C//DTD SVG 1.1//EN"
 "http://www.w3.org/Graphics/SVG/1.1/DTD/svg11.dtd">
<!-- Generated by graphviz version 2.47.0 (20210316.0004)
 -->
<!-- Title: dependencies Pages: 1 -->
<svg width="803pt" height="284pt"
 viewBox="0.00 0.00 803.00 284.00" xmlns="http://www.w3.org/2000/svg" xmlns:xlink="http://www.w3.org/1999/xlink">
<g id="graph0" class="graph" transform="scale(1 1) rotate(0) translate(4 280)">
<title>dependencies</title>
<polygon fill="white" stroke="transparent" points="-4,4 -4,-280 799,-280 799,4 -4,4"/>
<text text-anchor="start" x="376.51" y="-42.4" font-family="sans-serif" font-weight="bold" font-size="14.00">Legend</text>
<polygon fill="#ffffb3" stroke="transparent" points="163.5,-10 163.5,-30 183.5,-30 183.5,-10 163.5,-10"/>
<text text-anchor="start" x="187.13" y="-15.4" font-family="sans-serif" font-size="14.00"> &#160;Declarations</text>
<polygon fill="#8dd3c7" stroke="transparent" points="276.5,-10 276.5,-30 296.5,-30 296.5,-10 276.5,-10"/>
<text text-anchor="start" x="300.23" y="-15.4" font-family="sans-serif" font-size="14.00"> &#160;Module</text>
<polygon fill="#80b1d3" stroke="transparent" points="362.5,-10 362.5,-30 382.5,-30 382.5,-10 362.5,-10"/>
<text text-anchor="start" x="386.28" y="-15.4" font-family="sans-serif" font-size="14.00"> &#160;Bootstrap</text>
<polygon fill="#fdb462" stroke="transparent" points="459.5,-10 459.5,-30 479.5,-30 479.5,-10 459.5,-10"/>
<text text-anchor="start" x="483.17" y="-15.4" font-family="sans-serif" font-size="14.00"> &#160;Providers</text>
<polygon fill="#fb8072" stroke="transparent" points="555.5,-10 555.5,-30 575.5,-30 575.5,-10 555.5,-10"/>
<text text-anchor="start" x="579.23" y="-15.4" font-family="sans-serif" font-size="14.00"> &#160;Exports</text>
<g id="clust7" class="cluster">
<title>cluster_SynthComponentsModule</title>
<polygon fill="none" stroke="black" stroke-dasharray="1,5" points="8,-70 8,-268 787,-268 787,-70 8,-70"/>
</g>
<g id="clust8" class="cluster">
<title>cluster_SynthComponentsModule_declarations</title>
<polygon fill="none" stroke="black" points="130,-78 130,-130 779,-130 779,-78 130,-78"/>
</g>
<g id="clust15" class="cluster">
<title>cluster_SynthComponentsModule_imports</title>
<polygon fill="none" stroke="black" points="16,-78 16,-130 122,-130 122,-78 16,-78"/>
</g>
<g id="clust16" class="cluster">
<title>cluster_SynthComponentsModule_exports</title>
<polygon fill="none" stroke="black" points="64,-208 64,-260 731,-260 731,-208 64,-208"/>
</g>
<!-- ListComponent -->
<g id="node1" class="node">
<title>ListComponent</title>
<polygon fill="#ffffb3" stroke="black" points="770.61,-122 667.39,-122 667.39,-86 770.61,-86 770.61,-122"/>
<text text-anchor="middle" x="719" y="-99.8" font-family="Times,serif" font-size="14.00">ListComponent</text>
</g>
<!-- SynthComponentsModule -->
<g id="node7" class="node">
<title>SynthComponentsModule</title>
<polygon fill="#8dd3c7" stroke="black" points="480.5,-187 477.5,-191 456.5,-191 453.5,-187 317.5,-187 317.5,-151 480.5,-151 480.5,-187"/>
<text text-anchor="middle" x="399" y="-164.8" font-family="Times,serif" font-size="14.00">SynthComponentsModule</text>
</g>
<!-- ListComponent&#45;&gt;SynthComponentsModule -->
<g id="edge1" class="edge">
<title>ListComponent&#45;&gt;SynthComponentsModule</title>
<path fill="none" stroke="black" d="M695.38,-122.27C695.38,-140.56 695.38,-166 695.38,-166 695.38,-166 490.77,-166 490.77,-166"/>
<polygon fill="black" stroke="black" points="490.77,-162.5 480.77,-166 490.77,-169.5 490.77,-162.5"/>
</g>
<!-- SynthList -->
<g id="node2" class="node">
<title>SynthList</title>
<polygon fill="#ffffb3" stroke="black" points="649.45,-122 578.55,-122 578.55,-86 649.45,-86 649.45,-122"/>
<text text-anchor="middle" x="614" y="-99.8" font-family="Times,serif" font-size="14.00">SynthList</text>
</g>
<!-- SynthList&#45;&gt;SynthComponentsModule -->
<g id="edge2" class="edge">
<title>SynthList&#45;&gt;SynthComponentsModule</title>
<path fill="none" stroke="black" d="M588.88,-122.01C588.88,-138.05 588.88,-159 588.88,-159 588.88,-159 490.63,-159 490.63,-159"/>
<polygon fill="black" stroke="black" points="490.63,-155.5 480.63,-159 490.63,-162.5 490.63,-155.5"/>
</g>
<!-- SynthListRow -->
<g id="node3" class="node">
<title>SynthListRow</title>
<polygon fill="#ffffb3" stroke="black" points="560.39,-122 463.61,-122 463.61,-86 560.39,-86 560.39,-122"/>
<text text-anchor="middle" x="512" y="-99.8" font-family="Times,serif" font-size="14.00">SynthListRow</text>
</g>
<!-- SynthListRow&#45;&gt;SynthComponentsModule -->
<g id="edge3" class="edge">
<title>SynthListRow&#45;&gt;SynthComponentsModule</title>
<path fill="none" stroke="black" d="M472.03,-122.11C472.03,-122.11 472.03,-140.99 472.03,-140.99"/>
<polygon fill="black" stroke="black" points="468.53,-140.99 472.03,-150.99 475.53,-140.99 468.53,-140.99"/>
</g>
<!-- SynthNoData -->
<g id="node4" class="node">
<title>SynthNoData</title>
<polygon fill="#ffffb3" stroke="black" points="445.21,-122 352.79,-122 352.79,-86 445.21,-86 445.21,-122"/>
<text text-anchor="middle" x="399" y="-99.8" font-family="Times,serif" font-size="14.00">SynthNoData</text>
</g>
<!-- SynthNoData&#45;&gt;SynthComponentsModule -->
<g id="edge4" class="edge">
<title>SynthNoData&#45;&gt;SynthComponentsModule</title>
<path fill="none" stroke="black" d="M399,-122.11C399,-122.11 399,-140.99 399,-140.99"/>
<polygon fill="black" stroke="black" points="395.5,-140.99 399,-150.99 402.5,-140.99 395.5,-140.99"/>
</g>
<!-- SynthSkLoader -->
<g id="node5" class="node">
<title>SynthSkLoader</title>
<polygon fill="#ffffb3" stroke="black" points="334.6,-122 231.4,-122 231.4,-86 334.6,-86 334.6,-122"/>
<text text-anchor="middle" x="283" y="-99.8" font-family="Times,serif" font-size="14.00">SynthSkLoader</text>
</g>
<!-- SynthSkLoader&#45;&gt;SynthComponentsModule -->
<g id="edge5" class="edge">
<title>SynthSkLoader&#45;&gt;SynthComponentsModule</title>
<path fill="none" stroke="black" d="M326.02,-122.11C326.02,-122.11 326.02,-140.99 326.02,-140.99"/>
<polygon fill="black" stroke="black" points="322.52,-140.99 326.02,-150.99 329.52,-140.99 322.52,-140.99"/>
</g>
<!-- SynthTitle -->
<g id="node6" class="node">
<title>SynthTitle</title>
<polygon fill="#ffffb3" stroke="black" points="213.61,-122 138.39,-122 138.39,-86 213.61,-86 213.61,-122"/>
<text text-anchor="middle" x="176" y="-99.8" font-family="Times,serif" font-size="14.00">SynthTitle</text>
</g>
<!-- SynthTitle&#45;&gt;SynthComponentsModule -->
<g id="edge6" class="edge">
<title>SynthTitle&#45;&gt;SynthComponentsModule</title>
<path fill="none" stroke="black" d="M191.13,-122.01C191.13,-138.05 191.13,-159 191.13,-159 191.13,-159 307.44,-159 307.44,-159"/>
<polygon fill="black" stroke="black" points="307.44,-162.5 317.44,-159 307.44,-155.5 307.44,-162.5"/>
</g>
<!-- ListComponent  -->
<g id="node9" class="node">
<title>ListComponent </title>
<polygon fill="#fb8072" stroke="black" points="723.11,-252 616.89,-252 616.89,-216 723.11,-216 723.11,-252"/>
<text text-anchor="middle" x="670" y="-229.8" font-family="Times,serif" font-size="14.00">ListComponent </text>
</g>
<!-- SynthComponentsModule&#45;&gt;ListComponent  -->
<g id="edge8" class="edge">
<title>SynthComponentsModule&#45;&gt;ListComponent </title>
<path fill="none" stroke="black" stroke-dasharray="5,2" d="M480.83,-173C548.3,-173 632.96,-173 632.96,-173 632.96,-173 632.96,-205.7 632.96,-205.7"/>
<polygon fill="black" stroke="black" points="629.46,-205.7 632.96,-215.7 636.46,-205.7 629.46,-205.7"/>
</g>
<!-- SynthList  -->
<g id="node10" class="node">
<title>SynthList </title>
<polygon fill="#fb8072" stroke="black" points="598.95,-252 525.05,-252 525.05,-216 598.95,-216 598.95,-252"/>
<text text-anchor="middle" x="562" y="-229.8" font-family="Times,serif" font-size="14.00">SynthList </text>
</g>
<!-- SynthComponentsModule&#45;&gt;SynthList  -->
<g id="edge9" class="edge">
<title>SynthComponentsModule&#45;&gt;SynthList </title>
<path fill="none" stroke="black" stroke-dasharray="5,2" d="M480.53,-180C512.97,-180 542.74,-180 542.74,-180 542.74,-180 542.74,-205.72 542.74,-205.72"/>
<polygon fill="black" stroke="black" points="539.24,-205.72 542.74,-215.72 546.24,-205.72 539.24,-205.72"/>
</g>
<!-- SynthListRow  -->
<g id="node11" class="node">
<title>SynthListRow </title>
<polygon fill="#fb8072" stroke="black" points="507.4,-252 406.6,-252 406.6,-216 507.4,-216 507.4,-252"/>
<text text-anchor="middle" x="457" y="-229.8" font-family="Times,serif" font-size="14.00">SynthListRow </text>
</g>
<!-- SynthComponentsModule&#45;&gt;SynthListRow  -->
<g id="edge10" class="edge">
<title>SynthComponentsModule&#45;&gt;SynthListRow </title>
<path fill="none" stroke="black" stroke-dasharray="5,2" d="M443.65,-187.11C443.65,-187.11 443.65,-205.99 443.65,-205.99"/>
<polygon fill="black" stroke="black" points="440.15,-205.99 443.65,-215.99 447.15,-205.99 440.15,-205.99"/>
</g>
<!-- SynthNoData  -->
<g id="node12" class="node">
<title>SynthNoData </title>
<polygon fill="#fb8072" stroke="black" points="388.71,-252 293.29,-252 293.29,-216 388.71,-216 388.71,-252"/>
<text text-anchor="middle" x="341" y="-229.8" font-family="Times,serif" font-size="14.00">SynthNoData </text>
</g>
<!-- SynthComponentsModule&#45;&gt;SynthNoData  -->
<g id="edge11" class="edge">
<title>SynthComponentsModule&#45;&gt;SynthNoData </title>
<path fill="none" stroke="black" stroke-dasharray="5,2" d="M353.18,-187.11C353.18,-187.11 353.18,-205.99 353.18,-205.99"/>
<polygon fill="black" stroke="black" points="349.68,-205.99 353.18,-215.99 356.68,-205.99 349.68,-205.99"/>
</g>
<!-- SynthSkLoader  -->
<g id="node13" class="node">
<title>SynthSkLoader </title>
<polygon fill="#fb8072" stroke="black" points="275.1,-252 168.9,-252 168.9,-216 275.1,-216 275.1,-252"/>
<text text-anchor="middle" x="222" y="-229.8" font-family="Times,serif" font-size="14.00">SynthSkLoader </text>
</g>
<!-- SynthComponentsModule&#45;&gt;SynthSkLoader  -->
<g id="edge12" class="edge">
<title>SynthComponentsModule&#45;&gt;SynthSkLoader </title>
<path fill="none" stroke="black" stroke-dasharray="5,2" d="M317.25,-180C284.05,-180 253.38,-180 253.38,-180 253.38,-180 253.38,-205.72 253.38,-205.72"/>
<polygon fill="black" stroke="black" points="249.88,-205.72 253.38,-215.72 256.88,-205.72 249.88,-205.72"/>
</g>
<!-- SynthTitle  -->
<g id="node14" class="node">
<title>SynthTitle </title>
<polygon fill="#fb8072" stroke="black" points="150.11,-252 71.89,-252 71.89,-216 150.11,-216 150.11,-252"/>
<text text-anchor="middle" x="111" y="-229.8" font-family="Times,serif" font-size="14.00">SynthTitle </text>
</g>
<!-- SynthComponentsModule&#45;&gt;SynthTitle  -->
<g id="edge13" class="edge">
<title>SynthComponentsModule&#45;&gt;SynthTitle </title>
<path fill="none" stroke="black" stroke-dasharray="5,2" d="M317.38,-173C242.91,-173 144.38,-173 144.38,-173 144.38,-173 144.38,-205.7 144.38,-205.7"/>
<polygon fill="black" stroke="black" points="140.88,-205.7 144.38,-215.7 147.88,-205.7 140.88,-205.7"/>
</g>
<!-- StoreModule -->
<g id="node8" class="node">
<title>StoreModule</title>
<polygon fill="#8dd3c7" stroke="black" points="113.6,-122 110.6,-126 89.6,-126 86.6,-122 24.4,-122 24.4,-86 113.6,-86 113.6,-122"/>
<text text-anchor="middle" x="69" y="-99.8" font-family="Times,serif" font-size="14.00">StoreModule</text>
</g>
<!-- StoreModule&#45;&gt;SynthComponentsModule -->
<g id="edge7" class="edge">
<title>StoreModule&#45;&gt;SynthComponentsModule</title>
<path fill="none" stroke="black" d="M92.62,-122.27C92.62,-140.56 92.62,-166 92.62,-166 92.62,-166 307.3,-166 307.3,-166"/>
<polygon fill="black" stroke="black" points="307.3,-169.5 317.3,-166 307.3,-162.5 307.3,-169.5"/>
</g>
</g>
</svg>
