<?xml version="1.0" encoding="UTF-8" standalone="no"?>
<!DOCTYPE svg PUBLIC "-//W3C//DTD SVG 1.1//EN"
 "http://www.w3.org/Graphics/SVG/1.1/DTD/svg11.dtd">
<!-- Generated by graphviz version 2.47.0 (20210316.0004)
 -->
<!-- Title: dependencies Pages: 1 -->
<svg width="803pt" height="284pt"
 viewBox="0.00 0.00 803.00 284.00" xmlns="http://www.w3.org/2000/svg" xmlns:xlink="http://www.w3.org/1999/xlink">
<g id="graph0" class="graph" transform="scale(1 1) rotate(0) translate(4 280)">
<title>dependencies</title>
<polygon fill="white" stroke="transparent" points="-4,4 -4,-280 799,-280 799,4 -4,4"/>
<text text-anchor="start" x="376.51" y="-42.4" font-family="sans-serif" font-weight="bold" font-size="14.00">Legend</text>
<polygon fill="#ffffb3" stroke="transparent" points="163.5,-10 163.5,-30 183.5,-30 183.5,-10 163.5,-10"/>
<text text-anchor="start" x="187.13" y="-15.4" font-family="sans-serif" font-size="14.00"> &#160;Declarations</text>
<polygon fill="#8dd3c7" stroke="transparent" points="276.5,-10 276.5,-30 296.5,-30 296.5,-10 276.5,-10"/>
<text text-anchor="start" x="300.23" y="-15.4" font-family="sans-serif" font-size="14.00"> &#160;Module</text>
<polygon fill="#80b1d3" stroke="transparent" points="362.5,-10 362.5,-30 382.5,-30 382.5,-10 362.5,-10"/>
<text text-anchor="start" x="386.28" y="-15.4" font-family="sans-serif" font-size="14.00"> &#160;Bootstrap</text>
<polygon fill="#fdb462" stroke="transparent" points="459.5,-10 459.5,-30 479.5,-30 479.5,-10 459.5,-10"/>
<text text-anchor="start" x="483.17" y="-15.4" font-family="sans-serif" font-size="14.00"> &#160;Providers</text>
<polygon fill="#fb8072" stroke="transparent" points="555.5,-10 555.5,-30 575.5,-30 575.5,-10 555.5,-10"/>
<text text-anchor="start" x="579.23" y="-15.4" font-family="sans-serif" font-size="14.00"> &#160;Exports</text>
<g id="clust1" class="cluster">
<title>cluster_SynthComponentsModule</title>
<polygon fill="none" stroke="black" stroke-dasharray="1,5" points="8,-70 8,-268 787,-268 787,-70 8,-70"/>
</g>
<g id="clust9" class="cluster">
<title>cluster_SynthComponentsModule_imports</title>
<polygon fill="none" stroke="black" points="673,-78 673,-130 779,-130 779,-78 673,-78"/>
</g>
<g id="clust10" class="cluster">
<title>cluster_SynthComponentsModule_exports</title>
<polygon fill="none" stroke="black" points="64,-208 64,-260 731,-260 731,-208 64,-208"/>
</g>
<g id="clust2" class="cluster">
<title>cluster_SynthComponentsModule_declarations</title>
<polygon fill="none" stroke="black" points="16,-78 16,-130 665,-130 665,-78 16,-78"/>
</g>
<!-- ListComponent -->
<g id="node1" class="node">
<title>ListComponent</title>
<polygon fill="#ffffb3" stroke="black" points="656.61,-122 553.39,-122 553.39,-86 656.61,-86 656.61,-122"/>
<text text-anchor="middle" x="605" y="-99.8" font-family="Times,serif" font-size="14.00">ListComponent</text>
</g>
<!-- SynthComponentsModule -->
<g id="node7" class="node">
<title>SynthComponentsModule</title>
<polygon fill="#8dd3c7" stroke="black" points="479.5,-187 476.5,-191 455.5,-191 452.5,-187 316.5,-187 316.5,-151 479.5,-151 479.5,-187"/>
<text text-anchor="middle" x="398" y="-164.8" font-family="Times,serif" font-size="14.00">SynthComponentsModule</text>
</g>
<!-- ListComponent&#45;&gt;SynthComponentsModule -->
<g id="edge1" class="edge">
<title>ListComponent&#45;&gt;SynthComponentsModule</title>
<path fill="none" stroke="black" d="M576.21,-122.01C576.21,-138.05 576.21,-159 576.21,-159 576.21,-159 489.54,-159 489.54,-159"/>
<polygon fill="black" stroke="black" points="489.54,-155.5 479.54,-159 489.54,-162.5 489.54,-155.5"/>
</g>
<!-- SynthList -->
<g id="node2" class="node">
<title>SynthList</title>
<polygon fill="#ffffb3" stroke="black" points="535.45,-122 464.55,-122 464.55,-86 535.45,-86 535.45,-122"/>
<text text-anchor="middle" x="500" y="-99.8" font-family="Times,serif" font-size="14.00">SynthList</text>
</g>
<!-- SynthList&#45;&gt;SynthComponentsModule -->
<g id="edge2" class="edge">
<title>SynthList&#45;&gt;SynthComponentsModule</title>
<path fill="none" stroke="black" d="M472.14,-122.11C472.14,-122.11 472.14,-140.99 472.14,-140.99"/>
<polygon fill="black" stroke="black" points="468.64,-140.99 472.14,-150.99 475.64,-140.99 468.64,-140.99"/>
</g>
<!-- SynthListRow -->
<g id="node3" class="node">
<title>SynthListRow</title>
<polygon fill="#ffffb3" stroke="black" points="446.39,-122 349.61,-122 349.61,-86 446.39,-86 446.39,-122"/>
<text text-anchor="middle" x="398" y="-99.8" font-family="Times,serif" font-size="14.00">SynthListRow</text>
</g>
<!-- SynthListRow&#45;&gt;SynthComponentsModule -->
<g id="edge3" class="edge">
<title>SynthListRow&#45;&gt;SynthComponentsModule</title>
<path fill="none" stroke="black" d="M398,-122.11C398,-122.11 398,-140.99 398,-140.99"/>
<polygon fill="black" stroke="black" points="394.5,-140.99 398,-150.99 401.5,-140.99 394.5,-140.99"/>
</g>
<!-- SynthNoData -->
<g id="node4" class="node">
<title>SynthNoData</title>
<polygon fill="#ffffb3" stroke="black" points="331.21,-122 238.79,-122 238.79,-86 331.21,-86 331.21,-122"/>
<text text-anchor="middle" x="285" y="-99.8" font-family="Times,serif" font-size="14.00">SynthNoData</text>
</g>
<!-- SynthNoData&#45;&gt;SynthComponentsModule -->
<g id="edge4" class="edge">
<title>SynthNoData&#45;&gt;SynthComponentsModule</title>
<path fill="none" stroke="black" d="M323.8,-122.11C323.8,-122.11 323.8,-140.99 323.8,-140.99"/>
<polygon fill="black" stroke="black" points="320.3,-140.99 323.8,-150.99 327.3,-140.99 320.3,-140.99"/>
</g>
<!-- SynthSkLoader -->
<g id="node5" class="node">
<title>SynthSkLoader</title>
<polygon fill="#ffffb3" stroke="black" points="220.6,-122 117.4,-122 117.4,-86 220.6,-86 220.6,-122"/>
<text text-anchor="middle" x="169" y="-99.8" font-family="Times,serif" font-size="14.00">SynthSkLoader</text>
</g>
<!-- SynthSkLoader&#45;&gt;SynthComponentsModule -->
<g id="edge5" class="edge">
<title>SynthSkLoader&#45;&gt;SynthComponentsModule</title>
<path fill="none" stroke="black" d="M194.62,-122.01C194.62,-138.05 194.62,-159 194.62,-159 194.62,-159 306.45,-159 306.45,-159"/>
<polygon fill="black" stroke="black" points="306.45,-162.5 316.45,-159 306.45,-155.5 306.45,-162.5"/>
</g>
<!-- SynthTitle -->
<g id="node6" class="node">
<title>SynthTitle</title>
<polygon fill="#ffffb3" stroke="black" points="99.61,-122 24.39,-122 24.39,-86 99.61,-86 99.61,-122"/>
<text text-anchor="middle" x="62" y="-99.8" font-family="Times,serif" font-size="14.00">SynthTitle</text>
</g>
<!-- SynthTitle&#45;&gt;SynthComponentsModule -->
<g id="edge6" class="edge">
<title>SynthTitle&#45;&gt;SynthComponentsModule</title>
<path fill="none" stroke="black" d="M85.62,-122.27C85.62,-140.56 85.62,-166 85.62,-166 85.62,-166 306.34,-166 306.34,-166"/>
<polygon fill="black" stroke="black" points="306.34,-169.5 316.34,-166 306.34,-162.5 306.34,-169.5"/>
</g>
<!-- ListComponent  -->
<g id="node9" class="node">
<title>ListComponent </title>
<polygon fill="#fb8072" stroke="black" points="723.11,-252 616.89,-252 616.89,-216 723.11,-216 723.11,-252"/>
<text text-anchor="middle" x="670" y="-229.8" font-family="Times,serif" font-size="14.00">ListComponent </text>
</g>
<!-- SynthComponentsModule&#45;&gt;ListComponent  -->
<g id="edge8" class="edge">
<title>SynthComponentsModule&#45;&gt;ListComponent </title>
<path fill="none" stroke="black" stroke-dasharray="5,2" d="M479.79,-173C548.86,-173 636.62,-173 636.62,-173 636.62,-173 636.62,-205.7 636.62,-205.7"/>
<polygon fill="black" stroke="black" points="633.13,-205.7 636.62,-215.7 640.13,-205.7 633.13,-205.7"/>
</g>
<!-- SynthList  -->
<g id="node10" class="node">
<title>SynthList </title>
<polygon fill="#fb8072" stroke="black" points="598.95,-252 525.05,-252 525.05,-216 598.95,-216 598.95,-252"/>
<text text-anchor="middle" x="562" y="-229.8" font-family="Times,serif" font-size="14.00">SynthList </text>
</g>
<!-- SynthComponentsModule&#45;&gt;SynthList  -->
<g id="edge9" class="edge">
<title>SynthComponentsModule&#45;&gt;SynthList </title>
<path fill="none" stroke="black" stroke-dasharray="5,2" d="M479.8,-180C506.83,-180 530.12,-180 530.12,-180 530.12,-180 530.12,-205.72 530.12,-205.72"/>
<polygon fill="black" stroke="black" points="526.63,-205.72 530.12,-215.72 533.63,-205.72 526.63,-205.72"/>
</g>
<!-- SynthListRow  -->
<g id="node11" class="node">
<title>SynthListRow </title>
<polygon fill="#fb8072" stroke="black" points="507.4,-252 406.6,-252 406.6,-216 507.4,-216 507.4,-252"/>
<text text-anchor="middle" x="457" y="-229.8" font-family="Times,serif" font-size="14.00">SynthListRow </text>
</g>
<!-- SynthComponentsModule&#45;&gt;SynthListRow  -->
<g id="edge10" class="edge">
<title>SynthComponentsModule&#45;&gt;SynthListRow </title>
<path fill="none" stroke="black" stroke-dasharray="5,2" d="M443.15,-187.11C443.15,-187.11 443.15,-205.99 443.15,-205.99"/>
<polygon fill="black" stroke="black" points="439.65,-205.99 443.15,-215.99 446.65,-205.99 439.65,-205.99"/>
</g>
<!-- SynthNoData  -->
<g id="node12" class="node">
<title>SynthNoData </title>
<polygon fill="#fb8072" stroke="black" points="388.71,-252 293.29,-252 293.29,-216 388.71,-216 388.71,-252"/>
<text text-anchor="middle" x="341" y="-229.8" font-family="Times,serif" font-size="14.00">SynthNoData </text>
</g>
<!-- SynthComponentsModule&#45;&gt;SynthNoData  -->
<g id="edge11" class="edge">
<title>SynthComponentsModule&#45;&gt;SynthNoData </title>
<path fill="none" stroke="black" stroke-dasharray="5,2" d="M352.68,-187.11C352.68,-187.11 352.68,-205.99 352.68,-205.99"/>
<polygon fill="black" stroke="black" points="349.18,-205.99 352.68,-215.99 356.18,-205.99 349.18,-205.99"/>
</g>
<!-- SynthSkLoader  -->
<g id="node13" class="node">
<title>SynthSkLoader </title>
<polygon fill="#fb8072" stroke="black" points="275.1,-252 168.9,-252 168.9,-216 275.1,-216 275.1,-252"/>
<text text-anchor="middle" x="222" y="-229.8" font-family="Times,serif" font-size="14.00">SynthSkLoader </text>
</g>
<!-- SynthComponentsModule&#45;&gt;SynthSkLoader  -->
<g id="edge12" class="edge">
<title>SynthComponentsModule&#45;&gt;SynthSkLoader </title>
<path fill="none" stroke="black" stroke-dasharray="5,2" d="M316.44,-180C285.28,-180 257.1,-180 257.1,-180 257.1,-180 257.1,-205.72 257.1,-205.72"/>
<polygon fill="black" stroke="black" points="253.6,-205.72 257.1,-215.72 260.6,-205.72 253.6,-205.72"/>
</g>
<!-- SynthTitle  -->
<g id="node14" class="node">
<title>SynthTitle </title>
<polygon fill="#fb8072" stroke="black" points="150.11,-252 71.89,-252 71.89,-216 150.11,-216 150.11,-252"/>
<text text-anchor="middle" x="111" y="-229.8" font-family="Times,serif" font-size="14.00">SynthTitle </text>
</g>
<!-- SynthComponentsModule&#45;&gt;SynthTitle  -->
<g id="edge13" class="edge">
<title>SynthComponentsModule&#45;&gt;SynthTitle </title>
<path fill="none" stroke="black" stroke-dasharray="5,2" d="M316.24,-173C238.67,-173 133.88,-173 133.88,-173 133.88,-173 133.88,-205.7 133.88,-205.7"/>
<polygon fill="black" stroke="black" points="130.38,-205.7 133.88,-215.7 137.38,-205.7 130.38,-205.7"/>
</g>
<!-- StoreModule -->
<g id="node8" class="node">
<title>StoreModule</title>
<polygon fill="#8dd3c7" stroke="black" points="770.6,-122 767.6,-126 746.6,-126 743.6,-122 681.4,-122 681.4,-86 770.6,-86 770.6,-122"/>
<text text-anchor="middle" x="726" y="-99.8" font-family="Times,serif" font-size="14.00">StoreModule</text>
</g>
<!-- StoreModule&#45;&gt;SynthComponentsModule -->
<g id="edge7" class="edge">
<title>StoreModule&#45;&gt;SynthComponentsModule</title>
<path fill="none" stroke="black" d="M702.38,-122.27C702.38,-140.56 702.38,-166 702.38,-166 702.38,-166 489.57,-166 489.57,-166"/>
<polygon fill="black" stroke="black" points="489.57,-162.5 479.57,-166 489.57,-169.5 489.57,-162.5"/>
</g>
</g>
</svg>
