<svg xmlns="http://www.w3.org/2000/svg" xmlns:xlink="http://www.w3.org/1999/xlink" width="116.97" height="28.054" viewBox="0 0 116.97 28.054"><defs><clipPath id="logoa"><rect width="116.97" height="28.054" fill="none"></rect></clipPath><clipPath id="logob"><path d="M1727-104.839h5.638v-26.089H1727Z" transform="translate(-1727.001 130.928)" clip-rule="evenodd"></path></clipPath><clipPath id="logoc"><path d="M-42,881.2h2124.48V-191H-42Z" transform="translate(42 191)"></path></clipPath><clipPath id="logod"><path d="M1748.473-116.389a3.482,3.482,0,0,0-3.367-3.18,3.767,3.767,0,0,0-3.65,3.18Zm4.244,8.529a8.979,8.979,0,0,1-6.98,3.254c-5.086,0-8.909-3.74-8.909-9.426,0-5.049,3.226-9.464,8.279-9.464,4.7,0,8.032,4.227,8.032,9.277a8.475,8.475,0,0,1-.106,1.384h-11.786a4.577,4.577,0,0,0,4.6,4.3,5.874,5.874,0,0,0,4.278-2.094Z" transform="translate(-1736.827 123.496)" clip-rule="evenodd"></path></clipPath><clipPath id="logof"><path d="M1769.032-126.614a5.533,5.533,0,0,0-1.368-.187,3.083,3.083,0,0,0-2.561,1.047,4.441,4.441,0,0,0-.631,2.88v.561h5.261v4.115h-5.261v14.027h-4.56V-118.2h-4.385v-4.115h4.385v-.748c0-2.918.632-4.676,1.823-5.91a7.2,7.2,0,0,1,5.3-2.132,9.705,9.705,0,0,1,2.7.337Z" transform="translate(-1755.528 131.102)" clip-rule="evenodd"></path></clipPath><clipPath id="logoh"><path d="M1772.01-104.156h14.908v-23.566H1772.01Z" transform="translate(-1772.01 127.722)" clip-rule="evenodd"></path></clipPath><clipPath id="logoj"><rect width="15.491" height="24.343"></rect></clipPath><clipPath id="logok"><path d="M1786.742-104.53a10.56,10.56,0,0,1-2.841.374c-2.735,0-4.735-.973-5.892-2.619-.878-1.234-1.263-2.842-1.263-5.424v-6.359h-4.736v-4.115h4.736v-5.05h4.559v5.05h5.614v4.115h-5.614v6.92a3.5,3.5,0,0,0,.562,2.282,2.8,2.8,0,0,0,2.315.9,10.436,10.436,0,0,0,1.859-.187Z" transform="translate(-1772.01 127.722)" clip-rule="evenodd"></path></clipPath><clipPath id="logol"><path d="M1772-103.657h15.491V-128H1772Z" transform="translate(-1772 128)"></path></clipPath><clipPath id="logom"><path d="M1727-103.724H1843.97v-28.054H1727Z" transform="translate(-1727.001 131.778)" clip-rule="evenodd"></path></clipPath><clipPath id="logoo"><rect width="46.473" height="28.769"></rect></clipPath><clipPath id="logop"><path d="M1791.73-104.1h4.56V-122.24h-4.56Zm2.281-27.68a3.016,3.016,0,0,1,2.981,3.1,3.016,3.016,0,0,1-2.981,3.105,3.018,3.018,0,0,1-2.982-3.105A3.017,3.017,0,0,1,1794.01-131.779Z" transform="translate(-1791.028 131.779)" clip-rule="evenodd"></path></clipPath><clipPath id="logoq"><path d="M1727-103.231h117.289V-132H1727Z" transform="translate(-1727.001 132)"></path></clipPath><clipPath id="logor"><path d="M1813.134-116.389a3.483,3.483,0,0,0-3.367-3.18,3.766,3.766,0,0,0-3.649,3.18Zm4.244,8.529a8.98,8.98,0,0,1-6.98,3.254c-5.086,0-8.91-3.74-8.91-9.426,0-5.049,3.228-9.464,8.279-9.464,4.7,0,8.032,4.227,8.032,9.277a8.562,8.562,0,0,1-.1,1.384h-11.787a4.576,4.576,0,0,0,4.6,4.3,5.879,5.879,0,0,0,4.28-2.094Z" transform="translate(-1801.488 123.496)" clip-rule="evenodd"></path></clipPath><clipPath id="logot"><path d="M1822.621-110.516a6.905,6.905,0,0,0,4.667,1.8c1.227,0,2.174-.636,2.174-1.534,0-2.731-8.243-1.758-8.243-7.594,0-3.479,3.157-5.648,6.524-5.648a10.1,10.1,0,0,1,5.753,1.833l-2.14,3.516a5.521,5.521,0,0,0-3.262-1.234c-1.263,0-2.315.523-2.315,1.459,0,2.357,8.242,1.422,8.242,7.705,0,3.479-3.192,5.611-6.769,5.611a11.289,11.289,0,0,1-6.84-2.431Z" transform="translate(-1820.412 123.496)" clip-rule="evenodd"></path></clipPath></defs><g clip-path="url(#logoa)"><g transform="translate(0 0.941)" clip-path="url(#logob)"><g transform="translate(-1957.399 -66.469)" clip-path="url(#logoc)"><path d="M1722-98.774h16.7v-37.154H1722Z" transform="translate(229.865 196.865)"></path></g></g><g transform="translate(10.872 9.164)" clip-path="url(#logod)"><g transform="translate(-1968.271 -74.693)" clip-path="url(#logoc)"><path d="M1731.827-98.541H1759.2V-128.5h-27.375Z" transform="translate(230.912 197.657)"></path></g></g><g transform="translate(31.565 0.748)" clip-path="url(#logof)"><g transform="translate(-1988.963 -66.277)" clip-path="url(#logoc)"><path d="M1750.528-98.105H1775.8v-38h-25.271Z" transform="translate(232.903 196.847)"></path></g></g><g transform="translate(49.804 4.488)" clip-path="url(#logoh)"><g transform="translate(-2007.202 -70.017)" clip-path="url(#logoc)"><g transform="translate(2007.191 69.709)" clip-path="url(#logoj)"><g transform="translate(0.011 0.307)" clip-path="url(#logok)"><g transform="translate(-0.011 -0.307)" clip-path="url(#logol)"><path d="M1767.01-98.091h25.973v-34.631H1767.01Z" transform="translate(-1772.531 127.497)"></path></g></g></g></g></g><g clip-path="url(#logom)"><g transform="translate(-1957.399 -65.529)" clip-path="url(#logoc)"><g transform="translate(2028.214 65.283)" clip-path="url(#logoo)"><g transform="translate(0.031 0.245)" clip-path="url(#logop)"><g transform="translate(-70.847 -0.245)" clip-path="url(#logoq)"><path d="M1786.029-98.033h17.028v-38.745h-17.028Z" transform="translate(-1720.714 131.491)"></path></g></g><g transform="translate(11.605 9.409)" clip-path="url(#logor)"><g transform="translate(-82.421 -9.409)" clip-path="url(#logoq)"><path d="M1796.488-98.541h27.376V-128.5h-27.376Z" transform="translate(-1719.6 132.373)"></path></g></g><g transform="translate(32.543 9.409)" clip-path="url(#logot)"><g transform="translate(-103.359 -9.409)" clip-path="url(#logoq)"><path d="M1815.411-98.541h24.676V-128.5h-24.676Z" transform="translate(-1717.585 132.373)"></path></g></g></g></g></g></g></svg>