<?xml version="1.0" encoding="UTF-8" standalone="no"?>
<svg width="112" height="18" viewBox="0 0 112 18" fill="black" xmlns="http://www.w3.org/2000/svg">
<path d="M8.3328 12.1304C8.3328 12.6163 8.2628 13.0633 8.1284 13.4631C7.994 13.8546 7.798 14.1933 7.546 14.4737C7.294 14.7513 6.9832 14.9707 6.6192 15.1262C6.2524 15.2816 5.8296 15.3622 5.3564 15.3622C4.886 15.3622 4.4604 15.2816 4.0908 15.1262C3.724 14.9707 3.4132 14.7513 3.1612 14.4709C2.9064 14.1877 2.7104 13.8462 2.576 13.4548C2.4388 13.0577 2.3716 12.6107 2.3716 12.1304V4.25649H0V12.1304C0 12.8884 0.1232 13.6019 0.3696 14.2544C0.616 14.9096 0.9772 15.4843 1.4392 15.9646C1.9012 16.445 2.4696 16.8253 3.1304 17.0946C3.7884 17.364 4.536 17.5 5.3564 17.5C6.1712 17.5 6.9188 17.364 7.5796 17.0946C8.2404 16.8253 8.8116 16.445 9.2708 15.9619C9.73 15.4815 10.0884 14.9068 10.3348 14.2516C10.5812 13.5991 10.7044 12.8856 10.7044 12.1276V4.25649H8.3328V12.1304Z" fill="#000"/>
<path d="M17.1332 6.31936H21.1904V17.3528H23.562V6.31936H27.608V4.25649H17.1332V6.31936Z" fill="#000"/>
<path d="M36.5595 11.7306H41.4007V9.7649H36.5595V6.27494H42.5627V4.25649H34.1795V17.3528H42.5627L42.5739 15.3344H36.5595V11.7306Z" fill="#000"/>
<path d="M55.7563 11.7167C56.0615 11.614 56.3443 11.4863 56.6019 11.3364C57.0051 11.1004 57.3523 10.8144 57.6351 10.4868C57.9179 10.1564 58.1363 9.7788 58.2847 9.36511C58.4331 8.95143 58.5087 8.50443 58.5087 8.03243C58.5087 7.46882 58.4107 6.94685 58.2147 6.48319C58.0159 6.0112 57.7023 5.60307 57.2823 5.2699C56.8707 4.94228 56.3443 4.68963 55.7255 4.51471C55.1151 4.34535 54.3843 4.25928 53.5527 4.25928H49.6523V17.3556H52.0239V12.1776H52.9983C53.2447 12.1776 53.3539 12.2165 53.3987 12.2387C53.4771 12.2804 53.5527 12.3525 53.6283 12.458L56.7951 16.8476C56.9967 17.1807 57.3271 17.3556 57.7499 17.3556H59.9171L55.9971 12.0138C55.9187 11.9055 55.8403 11.8056 55.7563 11.7167ZM55.5155 9.70106C55.2999 9.88986 55.0199 10.0398 54.6895 10.1425C54.3479 10.2508 53.9447 10.3035 53.4855 10.3035H52.0155V6.22221H53.5471C54.4487 6.22221 55.1235 6.39157 55.5547 6.72474C55.9691 7.0468 56.1707 7.51602 56.1707 8.16015C56.1707 8.48221 56.1147 8.77651 56.0027 9.0375C55.8963 9.29015 55.7311 9.51504 55.5155 9.70106Z" fill="#000"/>
<path d="M93.4892 12.1304C93.4892 12.6163 93.4192 13.0661 93.2848 13.4631C93.1504 13.8546 92.9544 14.1933 92.7024 14.4737C92.4504 14.7513 92.1396 14.9707 91.7756 15.1262C91.4088 15.2816 90.986 15.3622 90.5128 15.3622C90.0424 15.3622 89.6168 15.2816 89.2472 15.1262C88.8804 14.9707 88.5696 14.7513 88.3176 14.4709C88.0628 14.1877 87.8668 13.8462 87.7324 13.4548C87.5952 13.0577 87.528 12.6107 87.528 12.1304V4.25649H85.1564V12.1304C85.1564 12.8884 85.2796 13.6019 85.526 14.2544C85.7724 14.9096 86.1336 15.4843 86.5956 15.9646C87.0576 16.445 87.626 16.8253 88.2868 17.0946C88.9448 17.364 89.6924 17.5 90.5128 17.5C91.3276 17.5 92.0752 17.364 92.736 17.0946C93.3968 16.8253 93.968 16.445 94.4272 15.9619C94.8864 15.4815 95.2448 14.9068 95.4912 14.2516C95.7376 13.5991 95.8608 12.8856 95.8608 12.1276V4.25649H93.4892V12.1304Z" fill="#000"/>
<path d="M105.986 15.3344V11.7306H110.827V9.7649H105.986V6.27494H111.989V4.25649H103.606V17.3528H111.989L112 15.3344H105.986Z" fill="#000"/>
<path d="M77.7252 13.4853C78.0388 12.6718 78.1984 11.7667 78.1984 10.8005C78.1984 9.83712 78.0388 8.93756 77.7252 8.12407C77.4116 7.30503 76.9636 6.59149 76.3924 6.00289C75.8212 5.41151 75.124 4.94507 74.3232 4.61468C73.5225 4.28428 72.6264 4.1177 71.6604 4.1177C70.6944 4.1177 69.7984 4.28428 69.0005 4.61468C68.2024 4.94507 67.5052 5.41151 66.9285 6.00289C66.3517 6.59149 65.9008 7.30503 65.5844 8.12407C65.2709 8.94034 65.1113 9.8399 65.1113 10.8005C65.1113 11.7667 65.2709 12.6718 65.5844 13.4881C65.9008 14.3072 66.3517 15.0207 66.9285 15.6093C67.5052 16.1979 68.2024 16.6643 69.0005 16.9919C69.7984 17.3196 70.6916 17.4862 71.6604 17.4862C71.7276 17.4862 71.7949 17.4834 71.8593 17.4806L79.3996 17.4862V15.476H76.5156C77.028 14.9124 77.434 14.2433 77.7252 13.4853ZM75.4908 12.7496C75.2976 13.3104 75.0204 13.7907 74.662 14.1739C74.3064 14.557 73.8725 14.8541 73.3713 15.0596C72.8672 15.265 72.2904 15.3705 71.6604 15.3705C71.0304 15.3705 70.4509 15.265 69.9441 15.0596C69.44 14.8541 69.0061 14.557 68.6505 14.1739C68.2921 13.7907 68.0121 13.3104 67.8188 12.7496C67.62 12.1804 67.522 11.5252 67.522 10.8005C67.522 10.0814 67.6228 9.43176 67.8216 8.8626C68.0176 8.30176 68.2977 7.82144 68.6533 7.43274C69.0089 7.0496 69.4428 6.74974 69.9469 6.54429C70.4537 6.33883 71.0304 6.23333 71.6633 6.23333C72.2933 6.23333 72.87 6.33883 73.374 6.54429C73.8752 6.74974 74.3092 7.0496 74.6648 7.43274C75.0204 7.81866 75.3004 8.29898 75.4936 8.8626C75.6897 9.43176 75.7877 10.0842 75.7877 10.8033C75.7821 11.5252 75.684 12.1804 75.4908 12.7496Z" fill="#000"/>
<path d="M88.5415 2.69339C89.1519 2.69339 89.6475 2.20196 89.6475 1.5967C89.6475 0.991446 89.1519 0.502796 88.5415 0.502796C87.9311 0.502796 87.4355 0.994222 87.4355 1.59948C87.4355 2.20474 87.9339 2.69339 88.5415 2.69339Z" fill="#000"/>
<path d="M92.2292 2.69337C92.8396 2.69337 93.3324 2.20194 93.3324 1.59669C93.3324 0.991426 92.8368 0.5 92.2292 0.5C91.6188 0.5 91.1232 0.991426 91.1232 1.59669C91.126 2.20194 91.6216 2.69337 92.2292 2.69337Z" fill="#000"/>
</svg>
