<svg id="Capa_1" data-name="Capa 1" xmlns="http://www.w3.org/2000/svg" viewBox="0 0 533.2 104.8"><title>NUEVO_LOGO_OYSHO</title><path d="M57,0.53c-33.2,0-55.2,22.4-55.2,52.4s22,52.4,55.2,52.4,55.2-22.4,55.2-52.4S90.24,0.53,57,.53Zm0,99.6c-21.4,0-37-15.4-37-47.2s15.6-47.2,37-47.2,37,15.4,37,47.2S78.44,100.13,57,100.13Z" transform="translate(-1.84 -0.53)"/><path d="M188.64,5.93l5.4,3.6c3.6,2.4,3.6,3.8,1.2,7.6l-2.4,3.8c-3,4.8-9.4,14.8-12.8,20.6l-3,5c-2.4,4-4.4,7.4-4.4,7.4s-1.8-3.4-3-5.2l-1.4-2.2c-5.6-8.8-13.2-20-19.8-29l-2.8-3.8c-1.2-1.6-.6-2.8.4-3.8l4.4-4v-1H118v1l6,4.2a24.8,24.8,0,0,1,5.6,5.6l2.6,3.4c4.4,5.6,17,22.8,24.4,34.6l2.4,3.8a9.11,9.11,0,0,1,1.2,5.2v28.8a3.53,3.53,0,0,1-1.8,3.4l-7.2,5.2v0.8H184v-0.8l-7.2-5.2a3.53,3.53,0,0,1-1.8-3.4V63.33a11.42,11.42,0,0,1,2-6.2l3-5c7-11.6,13.2-21.2,19.8-31.2l2.4-3.6a25.32,25.32,0,0,1,8-8l5-3.4v-1h-26.6v1Z" transform="translate(-1.84 -0.53)"/><path d="M479.84,0.53c-33.2,0-55.2,22.4-55.2,52.4s22,52.4,55.2,52.4S535,82.93,535,52.93,513,0.53,479.84.53Zm0,100.2c-22,0-37-16-37-47.8s15-47.8,37-47.8,37,16,37,47.8S501.84,100.73,479.84,100.73Z" transform="translate(-1.84 -0.53)"/><path d="M372.84,5.73l7.2,5.2a3.53,3.53,0,0,1,1.8,3.4v34.2h-51.4V14.33a3.53,3.53,0,0,1,1.8-3.4l7.2-5.2V4.93h-32.8v0.8l7.2,5.2a3.53,3.53,0,0,1,1.8,3.4v77.2a3.53,3.53,0,0,1-1.8,3.4l-7.2,5.2v0.8h32.8v-0.8l-7.2-5.2a3.53,3.53,0,0,1-1.8-3.4V54.33h51.4v37.2a3.53,3.53,0,0,1-1.8,3.4l-7.2,5.2v0.8h32.8v-0.8l-7.2-5.2a3.53,3.53,0,0,1-1.8-3.4V14.33a3.53,3.53,0,0,1,1.8-3.4l7.2-5.2V4.93h-32.8v0.8Z" transform="translate(-1.84 -0.53)"/><path d="M264.64,47.13L254,40.53c-8.2-5.2-14.2-10.4-14.2-18.8,0-9.2,6.6-15.4,16-15.4,9,0,15.6,4.8,20.4,12.6l3.2,5.2h1.2v-18s-8.8-4.8-22.2-4.8c-18,0-30,11.8-30,26,0,10.4,4.6,20.4,18.8,29.2l10.6,6.6c8.2,5,15.2,10.2,15.2,20,0,11-7.2,16.6-17.4,16.6-10.6,0-17.6-3.8-24-14.2l-4.4-7.4H226v21a60.44,60.44,0,0,0,25.4,5.6c19.8,0,33.2-11.4,33.2-28.4C284.64,64.33,278.44,55.73,264.64,47.13Z" transform="translate(-1.84 -0.53)"/></svg>