<svg xmlns:xlink="http://www.w3.org/1999/xlink" xmlns="http://www.w3.org/2000/svg" id="Capa_1" data-name="Capa 1" viewBox="0 0 465.84 114.48" width="465.84"  height="114.48" ><defs><style>.cls-1{fill:#1d1d1b;}</style></defs><title>logo_stradivarius_old</title><path class="cls-1" d="M68.35,74.11L67.89,62.43h1.45L74.07,73a8,8,0,0,0,2.33,1.56,7.48,7.48,0,0,0,3.17.65,6.6,6.6,0,0,0,5.11-2,7.78,7.78,0,0,0,1.83-5.49,5.53,5.53,0,0,0-1.26-3.7,9.79,9.79,0,0,0-4.08-2.55l-5-1.91q-7.79-2.9-7.79-10.46a10.12,10.12,0,0,1,2-6.14,13.07,13.07,0,0,1,5.53-4.23,20,20,0,0,1,8-1.53,23.29,23.29,0,0,1,9.92,2.44L93.69,50.07h-1.3l-4.28-9.31A8,8,0,0,0,83,38.85a5.48,5.48,0,0,0-4.35,1.83A7.76,7.76,0,0,0,77.05,46a4.16,4.16,0,0,0,1.33,3.28,12.13,12.13,0,0,0,4.24,2.52l4,1.6a18.75,18.75,0,0,1,6.8,4.16,8.64,8.64,0,0,1,2.06,6.07,11.08,11.08,0,0,1-2.21,6.79,14.51,14.51,0,0,1-6,4.62,20.12,20.12,0,0,1-8.17,1.64,27.34,27.34,0,0,1-10.84-2.52"/><path class="cls-1" d="M104.09,73.88q-2.17-2.52-2.1-7.33L102.22,42H96.57V40.07l5.65-1.76,7.86-9.46h1.6v9.69h10.76v3.59H111.68v25.8a5.45,5.45,0,0,0,2.22,3.4,7.5,7.5,0,0,0,4.12,1,14.73,14.73,0,0,0,4.65-.84l0.46,0.92a21,21,0,0,1-12,4q-4.88,0-7.06-2.52"/><path class="cls-1" d="M129.11,73.12V45.18l-4.66-2.9V41.6l13.05-4.2h0.38l0.38,10h0.3l1-2a23.41,23.41,0,0,1,4.39-6.3,6.76,6.76,0,0,1,4.62-1.72,5.34,5.34,0,0,1,3.62,1.3,4.43,4.43,0,0,1,1.49,3.51q0,4.51-5.19,5.65L143.77,44a7,7,0,0,0-2.67,2.1A11.43,11.43,0,0,0,138.8,50V73.12l6.33,1.14v1.15H124.45V74.26Z"/><path class="cls-1" d="M174.71,68.31V56l-5,1.68a9,9,0,0,0-4.5,2.75,7.89,7.89,0,0,0,.07,9,5,5,0,0,0,4,1.75,6.76,6.76,0,0,0,5.42-2.9M157.23,74a8.64,8.64,0,0,1-2.82-6.79,8.48,8.48,0,0,1,3.09-6.95q3.09-2.52,9.81-4.2l7.4-1.83V49.15q0-4.73-1.76-7.29a5.54,5.54,0,0,0-4.81-2.56,6.54,6.54,0,0,0-3.89,1.14l-0.3,9.77a12.28,12.28,0,0,1-4.2.69,4.77,4.77,0,0,1-3.17-1,3.48,3.48,0,0,1-1.18-2.83q0-2.13,2.37-4.39A18.68,18.68,0,0,1,164,39a22.87,22.87,0,0,1,8.24-1.49q6.11,0,9.08,2.79t3,8.82V69.83a2.8,2.8,0,0,0,.54,2,3.11,3.11,0,0,0,2.06.5h3.28v1.07c-0.25.15-.87,0.46-1.83,0.91a30.11,30.11,0,0,1-3.4,1.34,11.6,11.6,0,0,1-3.63.65,6.45,6.45,0,0,1-4.62-1.49A6.56,6.56,0,0,1,175,70.22h-0.39a22.6,22.6,0,0,1-4.69,4.69A10.86,10.86,0,0,1,157.23,74"/><path class="cls-1" d="M216,69.83V43.73q-2.14-3.51-7.48-3.51A7.85,7.85,0,0,0,202,43.77q-2.59,3.55-2.59,11a26,26,0,0,0,1.33,8.47,14.83,14.83,0,0,0,3.86,6.22,8.57,8.57,0,0,0,6,2.33A9.73,9.73,0,0,0,216,69.83m9.62-51.44V72.27l4.81,0.61V74L217.16,76.4l-0.84-5q-5.12,5.27-11,5.27a14.29,14.29,0,0,1-8.21-2.4,15.64,15.64,0,0,1-5.46-6.49,20.89,20.89,0,0,1-1.91-9,19.77,19.77,0,0,1,3.05-10.88,21.39,21.39,0,0,1,8.05-7.44,22.12,22.12,0,0,1,10.57-2.67,19.59,19.59,0,0,1,4.58.69V24.73l-5.88-1.68V22.14Z"/><path class="cls-1" d="M237.91,28.43a5.39,5.39,0,0,1,0-7.82,5.35,5.35,0,0,1,3.89-1.68,5.47,5.47,0,0,1,3.93,1.68,5.35,5.35,0,0,1,0,7.82,5.49,5.49,0,0,1-4,1.64,5.41,5.41,0,0,1-3.89-1.64M237.22,73V44.65l-4.66-2.36V41.37l14.35-3.89V73l5,1.3v1.15H232.41V74.26Z"/><polygon class="cls-1" points="253.75 40.91 249.78 39.69 249.78 38.54 269.17 38.54 269.17 39.5 263.98 40.78 271.91 64.04 272.83 67.01 272.98 67.01 273.75 64.87 281.92 41.14 276.04 39.69 276.04 38.54 288.86 38.54 288.86 39.69 285.05 40.83 271.31 76.63 267.26 76.63 253.75 40.91"/><path class="cls-1" d="M308.32,68.31V56l-5,1.68a9,9,0,0,0-4.5,2.75,7.89,7.89,0,0,0,.08,9,5,5,0,0,0,4,1.75,6.75,6.75,0,0,0,5.42-2.9M290.84,74A8.64,8.64,0,0,1,288,67.24a8.46,8.46,0,0,1,3.09-6.95q3.09-2.52,9.81-4.2l7.41-1.83V49.15q0-4.73-1.76-7.29a5.53,5.53,0,0,0-4.81-2.56,6.54,6.54,0,0,0-3.89,1.14l-0.3,9.77a12.24,12.24,0,0,1-4.2.69,4.77,4.77,0,0,1-3.16-1A3.48,3.48,0,0,1,289,47.09q0-2.13,2.36-4.39A18.67,18.67,0,0,1,297.63,39a22.86,22.86,0,0,1,8.24-1.49q6.1,0,9.09,2.79t3,8.82V69.83a2.79,2.79,0,0,0,.54,2,3.11,3.11,0,0,0,2.06.5h3.28v1.07c-0.26.15-.86,0.46-1.83,0.91a30.09,30.09,0,0,1-3.4,1.34,11.55,11.55,0,0,1-3.62.65,6.45,6.45,0,0,1-4.62-1.49,6.56,6.56,0,0,1-1.72-4.62h-0.38a22.65,22.65,0,0,1-4.69,4.69A10.87,10.87,0,0,1,290.84,74"/><path class="cls-1" d="M329.76,73.12V45.18l-4.66-2.9V41.6l13.05-4.2h0.38l0.38,10h0.31l1-2a23.4,23.4,0,0,1,4.39-6.3,6.74,6.74,0,0,1,4.62-1.72,5.33,5.33,0,0,1,3.62,1.3,4.42,4.42,0,0,1,1.49,3.51q0,4.51-5.19,5.65L344.41,44a7,7,0,0,0-2.67,2.1A11.39,11.39,0,0,0,339.45,50V73.12l6.33,1.3v1H325.1v-1Z"/><path class="cls-1" d="M361,28.43a5.4,5.4,0,0,1,0-7.82,5.34,5.34,0,0,1,3.89-1.68,5.47,5.47,0,0,1,3.93,1.68,5.35,5.35,0,0,1,0,7.82,5.5,5.5,0,0,1-4,1.64A5.4,5.4,0,0,1,361,28.43M360.28,73V44.65l-4.66-2.36V41.37L370,37.47V73l5,1.3v1.15H355.47V74.26Z"/><path class="cls-1" d="M396.3,74.68a13.13,13.13,0,0,1-6.95,1.95,10.52,10.52,0,0,1-7.9-3q-2.94-3-2.94-8.89V43.43l-4.73-2.06v-1l14.35-2.44V63.42q0,7.79,6.79,7.78a10.83,10.83,0,0,0,6.79-2.52V43.28l-5.19-1.91V40.3l14.88-2.52v34l5.11,1.37v1.14L402.71,76.4l-0.84-6.26a25.09,25.09,0,0,1-5.57,4.54"/><path class="cls-1" d="M419.25,74.11l-0.46-11.68h1.45L425,73a8,8,0,0,0,2.33,1.56,7.47,7.47,0,0,0,3.17.65,6.6,6.6,0,0,0,5.11-2,7.78,7.78,0,0,0,1.83-5.49,5.54,5.54,0,0,0-1.26-3.7,9.79,9.79,0,0,0-4.08-2.55l-5-1.91q-7.78-2.9-7.78-10.46a10.12,10.12,0,0,1,2-6.14,13.06,13.06,0,0,1,5.53-4.23,20,20,0,0,1,8-1.53,23.29,23.29,0,0,1,9.92,2.44l-0.08,10.38h-1.3L439,40.76a8,8,0,0,0-5.11-1.91,5.49,5.49,0,0,0-4.35,1.83,7.76,7.76,0,0,0-1.6,5.27,4.16,4.16,0,0,0,1.33,3.28,12.16,12.16,0,0,0,4.24,2.52l4,1.6a18.67,18.67,0,0,1,6.79,4.16,8.64,8.64,0,0,1,2.06,6.07,11.09,11.09,0,0,1-2.21,6.79,14.51,14.51,0,0,1-6,4.62,20.11,20.11,0,0,1-8.17,1.64,27.33,27.33,0,0,1-10.84-2.52"/><path class="cls-1" d="M46.14,7.07v0Z"/><path class="cls-1" d="M46.14,7V7Z"/><path class="cls-1" d="M46.14,7.41h0Z"/><path class="cls-1" d="M46.14,7V7Z"/><path class="cls-1" d="M69.56,71.43c-4.37,8.84-12,14.81-20.67,15.22a91.29,91.29,0,0,0,.25-10.16c0-.12,0-0.25,0-0.37,0-.38.14-0.4,0.47-0.51l1.25-.39a15.76,15.76,0,0,0,9.34-7.43c1.85-3.43,2.5-7.91,0-10.94A8.32,8.32,0,0,0,54.68,54c-1.15-.1-3.37,0-3.77,1.27-0.34,1.13.48,1.78,1.31,2.24,1.43,0.79,2.29,1.47,2.3,3.09a6.12,6.12,0,0,1-2.31,4.55,5.58,5.58,0,0,1-1.72,1c-0.62.21-1.34,0.31-1.34-.38V52.75c0-2.65.47-3.51,1.77-5.77,2.3-4,5.23-9.24,6.89-13.06a23.19,23.19,0,0,0,2-8.87C68,30.52,73.5,41.42,73.5,54c0,0.57,0,1.13,0,1.68h0a5.68,5.68,0,0,1,2.9.81c0-.17,0-0.33,0-0.5q0-1,0-2c0-14.54-6.94-27.05-16.91-32.62a23.14,23.14,0,0,0-2.29-6.81C56,12,52.48,7.29,50.17,5.52A2.56,2.56,0,0,0,47,5.26,2.15,2.15,0,0,0,46.14,7c0,0.18,0,5.14,0,11.4C31.23,19.52,19.42,35,19.42,54c0,17.7,10.29,32.4,23.79,35.22q-0.21.67-.42,1.3c-1.1,3.26-3.88,10.37-8.42,10.39a1.57,1.57,0,0,1-1.81-1.5A2,2,0,0,1,33,98.19a3.58,3.58,0,0,1,3-1.22A2.52,2.52,0,0,0,38,96.61a1.15,1.15,0,0,0,0-1.74A5.87,5.87,0,0,0,34.6,94c-4.2,0-9.24,3.2-9.29,7.85-0.06,5.47,5.19,7.87,9.8,7.85,5.71,0,9.57-3.5,11.31-8.77h0a55.84,55.84,0,0,0,2.06-10.38l0.1-.84c10-.27,18.68-6.93,23.61-16.84A6.19,6.19,0,0,1,69.56,71.43ZM49.15,15.05a0.46,0.46,0,0,1,.42-0.54c0.52,0,1,1,1.85,2.69q0.36,0.73.65,1.44a23.16,23.16,0,0,0-2.92-.34V15.05Zm0,6.29a20.3,20.3,0,0,1,4,.64,21.65,21.65,0,0,1-1.47,13.68,31.35,31.35,0,0,1-1.56,3.27,0.53,0.53,0,0,1-.62.4,0.47,0.47,0,0,1-.35-0.46V21.34Zm-3,34.35V66a0.32,0.32,0,0,1-.18.3,0.33,0.33,0,0,1-.44-0.15,8.73,8.73,0,0,1-.71-2A17,17,0,0,1,45.6,55a0.28,0.28,0,0,1,.29-0.18,0.49,0.49,0,0,1,.24.54C46.14,55.47,46.14,55.58,46.14,55.69Zm0-12.05c0,2.45-1.56,4.49-3.06,6.31-3.34,4-5.71,7.81-6.14,12.91-0.44,5.25,1.39,10.58,6.84,12.4a14.75,14.75,0,0,0,1.76.44c0.28,0,.62.06,0.59,0.44,0,0.1,0,.21-0.06.36-0.5,3.05-1.18,6.53-2,9.8C31.78,83.88,22.4,70.33,22.4,54c0-17.27,10.47-31.41,23.74-32.6C46.14,30.31,46.14,40.62,46.14,43.64Z"/><path class="cls-1" d="M46.14,7.27v0Z"/><path class="cls-1" d="M46.14,7.12v0Z"/></svg>